  0
SECTION
  2
BLOCKS
  0
ENDSEC
  0
SECTION
  2
ENTITIES
  0
LINE
  8
0
 10
-29.000000
 11
-29.000000
 20
-27.000000
 21
-12.995000
  0
LINE
  8
0
 10
-29.000000
 11
-14.995000
 20
-12.995000
 21
-12.995000
  0
LINE
  8
0
 10
-14.995000
 11
-14.995000
 20
-12.995000
 21
-27.000000
  0
LINE
  8
0
 10
-14.995000
 11
-29.000000
 20
-27.000000
 21
-27.000000
  0
LINE
  8
0
 10
-29.000000
 11
-29.000000
 20
-11.000000
 21
-8.995000
  0
LINE
  8
0
 10
-29.000000
 11
-26.995000
 20
-8.995000
 21
-8.995000
  0
LINE
  8
0
 10
-26.995000
 11
-26.995000
 20
-8.995000
 21
-11.000000
  0
LINE
  8
0
 10
-26.995000
 11
-29.000000
 20
-11.000000
 21
-11.000000
  0
LINE
  8
0
 10
-29.000000
 11
-29.000000
 20
-6.990000
 21
-5.000000
  0
LINE
  8
0
 10
-29.000000
 11
-27.010000
 20
-5.000000
 21
-5.000000
  0
LINE
  8
0
 10
-27.010000
 11
-27.010000
 20
-5.000000
 21
-6.990000
  0
LINE
  8
0
 10
-27.010000
 11
-29.000000
 20
-6.990000
 21
-6.990000
  0
LINE
  8
0
 10
-29.000000
 11
-29.000000
 20
-3.000000
 21
-0.995000
  0
LINE
  8
0
 10
-29.000000
 11
-25.000000
 20
-0.995000
 21
-0.995000
  0
LINE
  8
0
 10
-25.000000
 11
-25.000000
 20
-0.995000
 21
1.000000
  0
LINE
  8
0
 10
-25.000000
 11
-27.000000
 20
1.000000
 21
1.000000
  0
LINE
  8
0
 10
-27.000000
 11
-27.000000
 20
1.000000
 21
3.005000
  0
LINE
  8
0
 10
-27.000000
 11
-20.995000
 20
3.005000
 21
3.005000
  0
LINE
  8
0
 10
-20.995000
 11
-20.995000
 20
3.005000
 21
1.005000
  0
LINE
  8
0
 10
-20.995000
 11
-19.000000
 20
1.005000
 21
1.005000
  0
LINE
  8
0
 10
-19.000000
 11
-19.000000
 20
1.005000
 21
3.010000
  0
LINE
  8
0
 10
-19.000000
 11
-20.990000
 20
3.010000
 21
3.010000
  0
LINE
  8
0
 10
-20.990000
 11
-20.990000
 20
3.010000
 21
5.000000
  0
LINE
  8
0
 10
-20.990000
 11
-23.000000
 20
5.000000
 21
5.000000
  0
LINE
  8
0
 10
-23.000000
 11
-23.000000
 20
5.000000
 21
7.005000
  0
LINE
  8
0
 10
-23.000000
 11
-21.000000
 20
7.005000
 21
7.005000
  0
LINE
  8
0
 10
-21.000000
 11
-21.000000
 20
7.005000
 21
9.005000
  0
LINE
  8
0
 10
-21.000000
 11
-18.995000
 20
9.005000
 21
9.005000
  0
LINE
  8
0
 10
-18.995000
 11
-18.995000
 20
9.005000
 21
5.005000
  0
LINE
  8
0
 10
-18.995000
 11
-16.995000
 20
5.005000
 21
5.005000
  0
LINE
  8
0
 10
-16.995000
 11
-16.995000
 20
5.005000
 21
3.005000
  0
LINE
  8
0
 10
-16.995000
 11
-15.000000
 20
3.005000
 21
3.005000
  0
LINE
  8
0
 10
-15.000000
 11
-15.000000
 20
3.005000
 21
5.010000
  0
LINE
  8
0
 10
-15.000000
 11
-16.990000
 20
5.010000
 21
5.010000
  0
LINE
  8
0
 10
-16.990000
 11
-16.990000
 20
5.010000
 21
7.000000
  0
LINE
  8
0
 10
-16.990000
 11
-15.000000
 20
7.000000
 21
7.000000
  0
LINE
  8
0
 10
-15.000000
 11
-15.000000
 20
7.000000
 21
7.005000
  0
LINE
  8
0
 10
-15.000000
 11
-12.995000
 20
7.005000
 21
7.005000
  0
LINE
  8
0
 10
-12.995000
 11
-12.995000
 20
7.005000
 21
3.005000
  0
LINE
  8
0
 10
-12.995000
 11
-11.000000
 20
3.005000
 21
3.005000
  0
LINE
  8
0
 10
-11.000000
 11
-11.000000
 20
3.005000
 21
5.005000
  0
LINE
  8
0
 10
-11.000000
 11
-8.995000
 20
5.005000
 21
5.005000
  0
LINE
  8
0
 10
-8.995000
 11
-8.995000
 20
5.005000
 21
-1.000000
  0
LINE
  8
0
 10
-8.995000
 11
-9.010000
 20
-1.000000
 21
-1.000000
  0
LINE
  8
0
 10
-9.010000
 11
-9.010000
 20
-1.000000
 21
-2.990000
  0
LINE
  8
0
 10
-9.010000
 11
-10.995000
 20
-2.990000
 21
-2.990000
  0
LINE
  8
0
 10
-10.995000
 11
-10.995000
 20
-2.990000
 21
-3.000000
  0
LINE
  8
0
 10
-10.995000
 11
-13.000000
 20
-3.000000
 21
-3.000000
  0
LINE
  8
0
 10
-13.000000
 11
-13.000000
 20
-3.000000
 21
-0.995000
  0
LINE
  8
0
 10
-13.000000
 11
-11.000000
 20
-0.995000
 21
-0.995000
  0
LINE
  8
0
 10
-11.000000
 11
-11.000000
 20
-0.995000
 21
1.000000
  0
LINE
  8
0
 10
-11.000000
 11
-13.010000
 20
1.000000
 21
1.000000
  0
LINE
  8
0
 10
-13.010000
 11
-13.010000
 20
1.000000
 21
-0.990000
  0
LINE
  8
0
 10
-13.010000
 11
-14.990000
 20
-0.990000
 21
-0.990000
  0
LINE
  8
0
 10
-14.990000
 11
-14.990000
 20
-0.990000
 21
1.000000
  0
LINE
  8
0
 10
-14.990000
 11
-17.010000
 20
1.000000
 21
1.000000
  0
LINE
  8
0
 10
-17.010000
 11
-17.010000
 20
1.000000
 21
-0.990000
  0
LINE
  8
0
 10
-17.010000
 11
-18.995000
 20
-0.990000
 21
-0.990000
  0
LINE
  8
0
 10
-18.995000
 11
-18.995000
 20
-0.990000
 21
-1.000000
  0
LINE
  8
0
 10
-18.995000
 11
-19.010000
 20
-1.000000
 21
-1.000000
  0
LINE
  8
0
 10
-19.010000
 11
-19.010000
 20
-1.000000
 21
-2.990000
  0
LINE
  8
0
 10
-19.010000
 11
-20.990000
 20
-2.990000
 21
-2.990000
  0
LINE
  8
0
 10
-20.990000
 11
-20.990000
 20
-2.990000
 21
-1.000000
  0
LINE
  8
0
 10
-20.990000
 11
-22.995000
 20
-1.000000
 21
-1.000000
  0
LINE
  8
0
 10
-22.995000
 11
-22.995000
 20
-1.000000
 21
-2.995000
  0
LINE
  8
0
 10
-22.995000
 11
-20.995000
 20
-2.995000
 21
-2.995000
  0
LINE
  8
0
 10
-20.995000
 11
-20.995000
 20
-2.995000
 21
-5.000000
  0
LINE
  8
0
 10
-20.995000
 11
-23.010000
 20
-5.000000
 21
-5.000000
  0
LINE
  8
0
 10
-23.010000
 11
-23.010000
 20
-5.000000
 21
-6.990000
  0
LINE
  8
0
 10
-23.010000
 11
-24.990000
 20
-6.990000
 21
-6.990000
  0
LINE
  8
0
 10
-24.990000
 11
-24.990000
 20
-6.990000
 21
-5.000000
  0
LINE
  8
0
 10
-24.990000
 11
-25.000000
 20
-5.000000
 21
-5.000000
  0
LINE
  8
0
 10
-25.000000
 11
-25.000000
 20
-5.000000
 21
-4.990000
  0
LINE
  8
0
 10
-25.000000
 11
-26.990000
 20
-4.990000
 21
-4.990000
  0
LINE
  8
0
 10
-26.990000
 11
-26.990000
 20
-4.990000
 21
-3.000000
  0
LINE
  8
0
 10
-26.990000
 11
-29.000000
 20
-3.000000
 21
-3.000000
  0
LINE
  8
0
 10
-29.000000
 11
-29.000000
 20
5.000000
 21
11.005000
  0
LINE
  8
0
 10
-29.000000
 11
-25.000000
 20
11.005000
 21
11.005000
  0
LINE
  8
0
 10
-25.000000
 11
-25.000000
 20
11.005000
 21
13.000000
  0
LINE
  8
0
 10
-25.000000
 11
-29.000000
 20
13.000000
 21
13.000000
  0
LINE
  8
0
 10
-29.000000
 11
-29.000000
 20
13.000000
 21
15.005000
  0
LINE
  8
0
 10
-29.000000
 11
-22.995000
 20
15.005000
 21
15.005000
  0
LINE
  8
0
 10
-22.995000
 11
-22.995000
 20
15.005000
 21
13.005000
  0
LINE
  8
0
 10
-22.995000
 11
-21.000000
 20
13.005000
 21
13.005000
  0
LINE
  8
0
 10
-21.000000
 11
-21.000000
 20
13.005000
 21
15.005000
  0
LINE
  8
0
 10
-21.000000
 11
-13.000000
 20
15.005000
 21
15.005000
  0
LINE
  8
0
 10
-13.000000
 11
-13.000000
 20
15.005000
 21
19.005000
  0
LINE
  8
0
 10
-13.000000
 11
-10.995000
 20
19.005000
 21
19.005000
  0
LINE
  8
0
 10
-10.995000
 11
-10.995000
 20
19.005000
 21
17.005000
  0
LINE
  8
0
 10
-10.995000
 11
-9.000000
 20
17.005000
 21
17.005000
  0
LINE
  8
0
 10
-9.000000
 11
-9.000000
 20
17.005000
 21
19.005000
  0
LINE
  8
0
 10
-9.000000
 11
-6.995000
 20
19.005000
 21
19.005000
  0
LINE
  8
0
 10
-6.995000
 11
-6.995000
 20
19.005000
 21
15.005000
  0
LINE
  8
0
 10
-6.995000
 11
-4.995000
 20
15.005000
 21
15.005000
  0
LINE
  8
0
 10
-4.995000
 11
-4.995000
 20
15.005000
 21
11.000000
  0
LINE
  8
0
 10
-4.995000
 11
-7.000000
 20
11.000000
 21
11.000000
  0
LINE
  8
0
 10
-7.000000
 11
-7.000000
 20
11.000000
 21
11.010000
  0
LINE
  8
0
 10
-7.000000
 11
-8.990000
 20
11.010000
 21
11.010000
  0
LINE
  8
0
 10
-8.990000
 11
-8.990000
 20
11.010000
 21
13.000000
  0
LINE
  8
0
 10
-8.990000
 11
-9.000000
 20
13.000000
 21
13.000000
  0
LINE
  8
0
 10
-9.000000
 11
-9.000000
 20
13.000000
 21
15.000000
  0
LINE
  8
0
 10
-9.000000
 11
-10.995000
 20
15.000000
 21
15.000000
  0
LINE
  8
0
 10
-10.995000
 11
-10.995000
 20
15.000000
 21
13.000000
  0
LINE
  8
0
 10
-10.995000
 11
-12.995000
 20
13.000000
 21
13.000000
  0
LINE
  8
0
 10
-12.995000
 11
-12.995000
 20
13.000000
 21
11.000000
  0
LINE
  8
0
 10
-12.995000
 11
-13.010000
 20
11.000000
 21
11.000000
  0
LINE
  8
0
 10
-13.010000
 11
-13.010000
 20
11.000000
 21
9.010000
  0
LINE
  8
0
 10
-13.010000
 11
-14.995000
 20
9.010000
 21
9.010000
  0
LINE
  8
0
 10
-14.995000
 11
-14.995000
 20
9.010000
 21
9.000000
  0
LINE
  8
0
 10
-14.995000
 11
-17.000000
 20
9.000000
 21
9.000000
  0
LINE
  8
0
 10
-17.000000
 11
-17.000000
 20
9.000000
 21
11.005000
  0
LINE
  8
0
 10
-17.000000
 11
-15.000000
 20
11.005000
 21
11.005000
  0
LINE
  8
0
 10
-15.000000
 11
-15.000000
 20
11.005000
 21
13.000000
  0
LINE
  8
0
 10
-15.000000
 11
-18.995000
 20
13.000000
 21
13.000000
  0
LINE
  8
0
 10
-18.995000
 11
-18.995000
 20
13.000000
 21
11.000000
  0
LINE
  8
0
 10
-18.995000
 11
-21.010000
 20
11.000000
 21
11.000000
  0
LINE
  8
0
 10
-21.010000
 11
-21.010000
 20
11.000000
 21
9.010000
  0
LINE
  8
0
 10
-21.010000
 11
-22.995000
 20
9.010000
 21
9.010000
  0
LINE
  8
0
 10
-22.995000
 11
-22.995000
 20
9.010000
 21
9.000000
  0
LINE
  8
0
 10
-22.995000
 11
-23.010000
 20
9.000000
 21
9.000000
  0
LINE
  8
0
 10
-23.010000
 11
-23.010000
 20
9.000000
 21
7.010000
  0
LINE
  8
0
 10
-23.010000
 11
-24.995000
 20
7.010000
 21
7.010000
  0
LINE
  8
0
 10
-24.995000
 11
-24.995000
 20
7.010000
 21
5.000000
  0
LINE
  8
0
 10
-24.995000
 11
-29.000000
 20
5.000000
 21
5.000000
  0
LINE
  8
0
 10
-29.000000
 11
-29.000000
 20
17.000000
 21
31.005000
  0
LINE
  8
0
 10
-29.000000
 11
-14.995000
 20
31.005000
 21
31.005000
  0
LINE
  8
0
 10
-14.995000
 11
-14.995000
 20
31.005000
 21
17.000000
  0
LINE
  8
0
 10
-14.995000
 11
-29.000000
 20
17.000000
 21
17.000000
  0
LINE
  8
0
 10
-26.995000
 11
-26.995000
 20
-24.995000
 21
-15.000000
  0
LINE
  8
0
 10
-26.995000
 11
-17.000000
 20
-15.000000
 21
-15.000000
  0
LINE
  8
0
 10
-17.000000
 11
-17.000000
 20
-15.000000
 21
-24.995000
  0
LINE
  8
0
 10
-17.000000
 11
-26.995000
 20
-24.995000
 21
-24.995000
  0
LINE
  8
0
 10
-26.995000
 11
-26.995000
 20
19.005000
 21
29.000000
  0
LINE
  8
0
 10
-26.995000
 11
-17.000000
 20
29.000000
 21
29.000000
  0
LINE
  8
0
 10
-17.000000
 11
-17.000000
 20
29.000000
 21
19.005000
  0
LINE
  8
0
 10
-17.000000
 11
-26.995000
 20
19.005000
 21
19.005000
  0
LINE
  8
0
 10
-26.990000
 11
-26.990000
 20
-8.990000
 21
-7.000000
  0
LINE
  8
0
 10
-26.990000
 11
-25.000000
 20
-7.000000
 21
-7.000000
  0
LINE
  8
0
 10
-25.000000
 11
-25.000000
 20
-7.000000
 21
-8.990000
  0
LINE
  8
0
 10
-25.000000
 11
-26.990000
 20
-8.990000
 21
-8.990000
  0
LINE
  8
0
 10
-25.000000
 11
-25.000000
 20
-23.000000
 21
-16.995000
  0
LINE
  8
0
 10
-25.000000
 11
-18.995000
 20
-16.995000
 21
-16.995000
  0
LINE
  8
0
 10
-18.995000
 11
-18.995000
 20
-16.995000
 21
-23.000000
  0
LINE
  8
0
 10
-18.995000
 11
-25.000000
 20
-23.000000
 21
-23.000000
  0
LINE
  8
0
 10
-25.000000
 11
-25.000000
 20
21.000000
 21
27.005000
  0
LINE
  8
0
 10
-25.000000
 11
-18.995000
 20
27.005000
 21
27.005000
  0
LINE
  8
0
 10
-18.995000
 11
-18.995000
 20
27.005000
 21
21.000000
  0
LINE
  8
0
 10
-18.995000
 11
-25.000000
 20
21.000000
 21
21.000000
  0
LINE
  8
0
 10
-23.000000
 11
-23.000000
 20
-8.990000
 21
-7.000000
  0
LINE
  8
0
 10
-23.000000
 11
-21.010000
 20
-7.000000
 21
-7.000000
  0
LINE
  8
0
 10
-21.010000
 11
-21.010000
 20
-7.000000
 21
-8.990000
  0
LINE
  8
0
 10
-21.010000
 11
-23.000000
 20
-8.990000
 21
-8.990000
  0
LINE
  8
0
 10
-21.000000
 11
-21.000000
 20
-11.000000
 21
-8.995000
  0
LINE
  8
0
 10
-21.000000
 11
-18.995000
 20
-8.995000
 21
-8.995000
  0
LINE
  8
0
 10
-18.995000
 11
-18.995000
 20
-8.995000
 21
-11.000000
  0
LINE
  8
0
 10
-18.995000
 11
-21.000000
 20
-11.000000
 21
-11.000000
  0
LINE
  8
0
 10
-19.000000
 11
-19.000000
 20
-7.000000
 21
-2.995000
  0
LINE
  8
0
 10
-19.000000
 11
-16.995000
 20
-2.995000
 21
-2.995000
  0
LINE
  8
0
 10
-16.995000
 11
-16.995000
 20
-2.995000
 21
-5.000000
  0
LINE
  8
0
 10
-16.995000
 11
-15.010000
 20
-5.000000
 21
-5.000000
  0
LINE
  8
0
 10
-15.010000
 11
-15.010000
 20
-5.000000
 21
-6.990000
  0
LINE
  8
0
 10
-15.010000
 11
-16.995000
 20
-6.990000
 21
-6.990000
  0
LINE
  8
0
 10
-16.995000
 11
-16.995000
 20
-6.990000
 21
-7.000000
  0
LINE
  8
0
 10
-16.995000
 11
-17.010000
 20
-7.000000
 21
-7.000000
  0
LINE
  8
0
 10
-17.010000
 11
-17.010000
 20
-7.000000
 21
-8.990000
  0
LINE
  8
0
 10
-17.010000
 11
-18.990000
 20
-8.990000
 21
-8.990000
  0
LINE
  8
0
 10
-18.990000
 11
-18.990000
 20
-8.990000
 21
-7.000000
  0
LINE
  8
0
 10
-18.990000
 11
-19.000000
 20
-7.000000
 21
-7.000000
  0
LINE
  8
0
 10
-17.000000
 11
-17.000000
 20
-11.000000
 21
-8.995000
  0
LINE
  8
0
 10
-17.000000
 11
-14.995000
 20
-8.995000
 21
-8.995000
  0
LINE
  8
0
 10
-14.995000
 11
-14.995000
 20
-8.995000
 21
-11.000000
  0
LINE
  8
0
 10
-14.995000
 11
-17.000000
 20
-11.000000
 21
-11.000000
  0
LINE
  8
0
 10
-16.990000
 11
-16.990000
 20
-2.990000
 21
-1.000000
  0
LINE
  8
0
 10
-16.990000
 11
-15.000000
 20
-1.000000
 21
-1.000000
  0
LINE
  8
0
 10
-15.000000
 11
-15.000000
 20
-1.000000
 21
-2.990000
  0
LINE
  8
0
 10
-15.000000
 11
-16.990000
 20
-2.990000
 21
-2.990000
  0
LINE
  8
0
 10
-14.990000
 11
-14.990000
 20
-8.990000
 21
-7.000000
  0
LINE
  8
0
 10
-14.990000
 11
-13.010000
 20
-7.000000
 21
-7.000000
  0
LINE
  8
0
 10
-13.010000
 11
-13.010000
 20
-7.000000
 21
-8.990000
  0
LINE
  8
0
 10
-13.010000
 11
-14.990000
 20
-8.990000
 21
-8.990000
  0
LINE
  8
0
 10
-13.000000
 11
-13.000000
 20
-27.000000
 21
-20.995000
  0
LINE
  8
0
 10
-13.000000
 11
-10.995000
 20
-20.995000
 21
-20.995000
  0
LINE
  8
0
 10
-10.995000
 11
-10.995000
 20
-20.995000
 21
-27.000000
  0
LINE
  8
0
 10
-10.995000
 11
-13.000000
 20
-27.000000
 21
-27.000000
  0
LINE
  8
0
 10
-13.000000
 11
-13.000000
 20
-19.000000
 21
-8.995000
  0
LINE
  8
0
 10
-13.000000
 11
-8.995000
 20
-8.995000
 21
-8.995000
  0
LINE
  8
0
 10
-8.995000
 11
-8.995000
 20
-8.995000
 21
-9.000000
  0
LINE
  8
0
 10
-8.995000
 11
-7.010000
 20
-9.000000
 21
-9.000000
  0
LINE
  8
0
 10
-7.010000
 11
-7.010000
 20
-9.000000
 21
-10.990000
  0
LINE
  8
0
 10
-7.010000
 11
-8.995000
 20
-10.990000
 21
-10.990000
  0
LINE
  8
0
 10
-8.995000
 11
-8.995000
 20
-10.990000
 21
-11.000000
  0
LINE
  8
0
 10
-8.995000
 11
-10.995000
 20
-11.000000
 21
-11.000000
  0
LINE
  8
0
 10
-10.995000
 11
-10.995000
 20
-11.000000
 21
-19.000000
  0
LINE
  8
0
 10
-10.995000
 11
-13.000000
 20
-19.000000
 21
-19.000000
  0
LINE
  8
0
 10
-13.000000
 11
-13.000000
 20
25.000000
 21
27.005000
  0
LINE
  8
0
 10
-13.000000
 11
-9.000000
 20
27.005000
 21
27.005000
  0
LINE
  8
0
 10
-9.000000
 11
-9.000000
 20
27.005000
 21
29.005000
  0
LINE
  8
0
 10
-9.000000
 11
-5.000000
 20
29.005000
 21
29.005000
  0
LINE
  8
0
 10
-5.000000
 11
-5.000000
 20
29.005000
 21
31.005000
  0
LINE
  8
0
 10
-5.000000
 11
-2.995000
 20
31.005000
 21
31.005000
  0
LINE
  8
0
 10
-2.995000
 11
-2.995000
 20
31.005000
 21
29.000000
  0
LINE
  8
0
 10
-2.995000
 11
-1.010000
 20
29.000000
 21
29.000000
  0
LINE
  8
0
 10
-1.010000
 11
-1.010000
 20
29.000000
 21
27.010000
  0
LINE
  8
0
 10
-1.010000
 11
-2.995000
 20
27.010000
 21
27.010000
  0
LINE
  8
0
 10
-2.995000
 11
-2.995000
 20
27.010000
 21
27.000000
  0
LINE
  8
0
 10
-2.995000
 11
-3.000000
 20
27.000000
 21
27.000000
  0
LINE
  8
0
 10
-3.000000
 11
-3.000000
 20
27.000000
 21
25.010000
  0
LINE
  8
0
 10
-3.000000
 11
-4.990000
 20
25.010000
 21
25.010000
  0
LINE
  8
0
 10
-4.990000
 11
-4.990000
 20
25.010000
 21
27.000000
  0
LINE
  8
0
 10
-4.990000
 11
-6.995000
 20
27.000000
 21
27.000000
  0
LINE
  8
0
 10
-6.995000
 11
-6.995000
 20
27.000000
 21
25.005000
  0
LINE
  8
0
 10
-6.995000
 11
-4.995000
 20
25.005000
 21
25.005000
  0
LINE
  8
0
 10
-4.995000
 11
-4.995000
 20
25.005000
 21
23.000000
  0
LINE
  8
0
 10
-4.995000
 11
-7.000000
 20
23.000000
 21
23.000000
  0
LINE
  8
0
 10
-7.000000
 11
-7.000000
 20
23.000000
 21
21.010000
  0
LINE
  8
0
 10
-7.000000
 11
-8.990000
 20
21.010000
 21
21.010000
  0
LINE
  8
0
 10
-8.990000
 11
-8.990000
 20
21.010000
 21
23.000000
  0
LINE
  8
0
 10
-8.990000
 11
-11.000000
 20
23.000000
 21
23.000000
  0
LINE
  8
0
 10
-11.000000
 11
-11.000000
 20
23.000000
 21
25.000000
  0
LINE
  8
0
 10
-11.000000
 11
-13.000000
 20
25.000000
 21
25.000000
  0
LINE
  8
0
 10
-12.990000
 11
-12.990000
 20
-6.990000
 21
-5.000000
  0
LINE
  8
0
 10
-12.990000
 11
-11.000000
 20
-5.000000
 21
-5.000000
  0
LINE
  8
0
 10
-11.000000
 11
-11.000000
 20
-5.000000
 21
-6.990000
  0
LINE
  8
0
 10
-11.000000
 11
-12.990000
 20
-6.990000
 21
-6.990000
  0
LINE
  8
0
 10
-12.990000
 11
-12.990000
 20
7.010000
 21
9.000000
  0
LINE
  8
0
 10
-12.990000
 11
-11.000000
 20
9.000000
 21
9.000000
  0
LINE
  8
0
 10
-11.000000
 11
-11.000000
 20
9.000000
 21
7.010000
  0
LINE
  8
0
 10
-11.000000
 11
-12.990000
 20
7.010000
 21
7.010000
  0
LINE
  8
0
 10
-11.000000
 11
-11.000000
 20
29.010000
 21
31.000000
  0
LINE
  8
0
 10
-11.000000
 11
-9.010000
 20
31.000000
 21
31.000000
  0
LINE
  8
0
 10
-9.010000
 11
-9.010000
 20
31.000000
 21
29.010000
  0
LINE
  8
0
 10
-9.010000
 11
-11.000000
 20
29.010000
 21
29.010000
  0
LINE
  8
0
 10
-10.990000
 11
-10.990000
 20
9.010000
 21
11.000000
  0
LINE
  8
0
 10
-10.990000
 11
-9.000000
 20
11.000000
 21
11.000000
  0
LINE
  8
0
 10
-9.000000
 11
-9.000000
 20
11.000000
 21
9.010000
  0
LINE
  8
0
 10
-9.000000
 11
-10.990000
 20
9.010000
 21
9.010000
  0
LINE
  8
0
 10
-10.990000
 11
-10.990000
 20
19.010000
 21
21.000000
  0
LINE
  8
0
 10
-10.990000
 11
-9.010000
 20
21.000000
 21
21.000000
  0
LINE
  8
0
 10
-9.010000
 11
-9.010000
 20
21.000000
 21
19.010000
  0
LINE
  8
0
 10
-9.010000
 11
-10.990000
 20
19.010000
 21
19.010000
  0
LINE
  8
0
 10
-9.000000
 11
-9.000000
 20
-27.000000
 21
-24.995000
  0
LINE
  8
0
 10
-9.000000
 11
-6.995000
 20
-24.995000
 21
-24.995000
  0
LINE
  8
0
 10
-6.995000
 11
-6.995000
 20
-24.995000
 21
-27.000000
  0
LINE
  8
0
 10
-6.995000
 11
-9.000000
 20
-27.000000
 21
-27.000000
  0
LINE
  8
0
 10
-9.000000
 11
-9.000000
 20
-22.990000
 21
-16.995000
  0
LINE
  8
0
 10
-9.000000
 11
-4.995000
 20
-16.995000
 21
-16.995000
  0
LINE
  8
0
 10
-4.995000
 11
-4.995000
 20
-16.995000
 21
-21.000000
  0
LINE
  8
0
 10
-4.995000
 11
-7.010000
 20
-21.000000
 21
-21.000000
  0
LINE
  8
0
 10
-7.010000
 11
-7.010000
 20
-21.000000
 21
-22.990000
  0
LINE
  8
0
 10
-7.010000
 11
-9.000000
 20
-22.990000
 21
-22.990000
  0
LINE
  8
0
 10
-9.000000
 11
-9.000000
 20
-15.000000
 21
-12.995000
  0
LINE
  8
0
 10
-9.000000
 11
-7.000000
 20
-12.995000
 21
-12.995000
  0
LINE
  8
0
 10
-7.000000
 11
-7.000000
 20
-12.995000
 21
-10.995000
  0
LINE
  8
0
 10
-7.000000
 11
-5.000000
 20
-10.995000
 21
-10.995000
  0
LINE
  8
0
 10
-5.000000
 11
-5.000000
 20
-10.995000
 21
-8.995000
  0
LINE
  8
0
 10
-5.000000
 11
-2.995000
 20
-8.995000
 21
-8.995000
  0
LINE
  8
0
 10
-2.995000
 11
-2.995000
 20
-8.995000
 21
-11.000000
  0
LINE
  8
0
 10
-2.995000
 11
-1.010000
 20
-11.000000
 21
-11.000000
  0
LINE
  8
0
 10
-1.010000
 11
-1.010000
 20
-11.000000
 21
-12.990000
  0
LINE
  8
0
 10
-1.010000
 11
-2.995000
 20
-12.990000
 21
-12.990000
  0
LINE
  8
0
 10
-2.995000
 11
-2.995000
 20
-12.990000
 21
-14.995000
  0
LINE
  8
0
 10
-2.995000
 11
-1.000000
 20
-14.995000
 21
-14.995000
  0
LINE
  8
0
 10
-1.000000
 11
-1.000000
 20
-14.995000
 21
-12.995000
  0
LINE
  8
0
 10
-1.000000
 11
1.005000
 20
-12.995000
 21
-12.995000
  0
LINE
  8
0
 10
1.005000
 11
1.005000
 20
-12.995000
 21
-16.995000
  0
LINE
  8
0
 10
1.005000
 11
3.000000
 20
-16.995000
 21
-16.995000
  0
LINE
  8
0
 10
3.000000
 11
3.000000
 20
-16.995000
 21
-6.995000
  0
LINE
  8
0
 10
3.000000
 11
5.000000
 20
-6.995000
 21
-6.995000
  0
LINE
  8
0
 10
5.000000
 11
5.000000
 20
-6.995000
 21
-4.995000
  0
LINE
  8
0
 10
5.000000
 11
7.005000
 20
-4.995000
 21
-4.995000
  0
LINE
  8
0
 10
7.005000
 11
7.005000
 20
-4.995000
 21
-6.995000
  0
LINE
  8
0
 10
7.005000
 11
9.005000
 20
-6.995000
 21
-6.995000
  0
LINE
  8
0
 10
9.005000
 11
9.005000
 20
-6.995000
 21
-9.000000
  0
LINE
  8
0
 10
9.005000
 11
7.005000
 20
-9.000000
 21
-9.000000
  0
LINE
  8
0
 10
7.005000
 11
7.005000
 20
-9.000000
 21
-11.000000
  0
LINE
  8
0
 10
7.005000
 11
8.990000
 20
-11.000000
 21
-11.000000
  0
LINE
  8
0
 10
8.990000
 11
8.990000
 20
-11.000000
 21
-12.990000
  0
LINE
  8
0
 10
8.990000
 11
7.005000
 20
-12.990000
 21
-12.990000
  0
LINE
  8
0
 10
7.005000
 11
7.005000
 20
-12.990000
 21
-13.000000
  0
LINE
  8
0
 10
7.005000
 11
5.005000
 20
-13.000000
 21
-13.000000
  0
LINE
  8
0
 10
5.005000
 11
5.005000
 20
-13.000000
 21
-14.995000
  0
LINE
  8
0
 10
5.005000
 11
7.005000
 20
-14.995000
 21
-14.995000
  0
LINE
  8
0
 10
7.005000
 11
7.005000
 20
-14.995000
 21
-19.000000
  0
LINE
  8
0
 10
7.005000
 11
5.005000
 20
-19.000000
 21
-19.000000
  0
LINE
  8
0
 10
5.005000
 11
5.005000
 20
-19.000000
 21
-21.000000
  0
LINE
  8
0
 10
5.005000
 11
3.000000
 20
-21.000000
 21
-21.000000
  0
LINE
  8
0
 10
3.000000
 11
3.000000
 20
-21.000000
 21
-19.000000
  0
LINE
  8
0
 10
3.000000
 11
1.000000
 20
-19.000000
 21
-19.000000
  0
LINE
  8
0
 10
1.000000
 11
1.000000
 20
-19.000000
 21
-20.990000
  0
LINE
  8
0
 10
1.000000
 11
-0.990000
 20
-20.990000
 21
-20.990000
  0
LINE
  8
0
 10
-0.990000
 11
-0.990000
 20
-20.990000
 21
-19.000000
  0
LINE
  8
0
 10
-0.990000
 11
-1.000000
 20
-19.000000
 21
-19.000000
  0
LINE
  8
0
 10
-1.000000
 11
-1.000000
 20
-19.000000
 21
-17.000000
  0
LINE
  8
0
 10
-1.000000
 11
-3.000000
 20
-17.000000
 21
-17.000000
  0
LINE
  8
0
 10
-3.000000
 11
-3.000000
 20
-17.000000
 21
-16.990000
  0
LINE
  8
0
 10
-3.000000
 11
-4.990000
 20
-16.990000
 21
-16.990000
  0
LINE
  8
0
 10
-4.990000
 11
-4.990000
 20
-16.990000
 21
-15.000000
  0
LINE
  8
0
 10
-4.990000
 11
-9.000000
 20
-15.000000
 21
-15.000000
  0
LINE
  8
0
 10
-9.000000
 11
-9.000000
 20
-5.000000
 21
-2.995000
  0
LINE
  8
0
 10
-9.000000
 11
-7.000000
 20
-2.995000
 21
-2.995000
  0
LINE
  8
0
 10
-7.000000
 11
-7.000000
 20
-2.995000
 21
-0.995000
  0
LINE
  8
0
 10
-7.000000
 11
-4.995000
 20
-0.995000
 21
-0.995000
  0
LINE
  8
0
 10
-4.995000
 11
-4.995000
 20
-0.995000
 21
-5.000000
  0
LINE
  8
0
 10
-4.995000
 11
-9.000000
 20
-5.000000
 21
-5.000000
  0
LINE
  8
0
 10
-7.000000
 11
-7.000000
 20
1.000000
 21
5.005000
  0
LINE
  8
0
 10
-7.000000
 11
-5.000000
 20
5.005000
 21
5.005000
  0
LINE
  8
0
 10
-5.000000
 11
-5.000000
 20
5.005000
 21
7.005000
  0
LINE
  8
0
 10
-5.000000
 11
-2.995000
 20
7.005000
 21
7.005000
  0
LINE
  8
0
 10
-2.995000
 11
-2.995000
 20
7.005000
 21
5.000000
  0
LINE
  8
0
 10
-2.995000
 11
-1.010000
 20
5.000000
 21
5.000000
  0
LINE
  8
0
 10
-1.010000
 11
-1.010000
 20
5.000000
 21
3.010000
  0
LINE
  8
0
 10
-1.010000
 11
-2.995000
 20
3.010000
 21
3.010000
  0
LINE
  8
0
 10
-2.995000
 11
-2.995000
 20
3.010000
 21
1.005000
  0
LINE
  8
0
 10
-2.995000
 11
-1.000000
 20
1.005000
 21
1.005000
  0
LINE
  8
0
 10
-1.000000
 11
-1.000000
 20
1.005000
 21
3.005000
  0
LINE
  8
0
 10
-1.000000
 11
1.005000
 20
3.005000
 21
3.005000
  0
LINE
  8
0
 10
1.005000
 11
1.005000
 20
3.005000
 21
-0.995000
  0
LINE
  8
0
 10
1.005000
 11
3.005000
 20
-0.995000
 21
-0.995000
  0
LINE
  8
0
 10
3.005000
 11
3.005000
 20
-0.995000
 21
-3.000000
  0
LINE
  8
0
 10
3.005000
 11
1.000000
 20
-3.000000
 21
-3.000000
  0
LINE
  8
0
 10
1.000000
 11
1.000000
 20
-3.000000
 21
-4.990000
  0
LINE
  8
0
 10
1.000000
 11
-0.990000
 20
-4.990000
 21
-4.990000
  0
LINE
  8
0
 10
-0.990000
 11
-0.990000
 20
-4.990000
 21
-3.000000
  0
LINE
  8
0
 10
-0.990000
 11
-1.000000
 20
-3.000000
 21
-3.000000
  0
LINE
  8
0
 10
-1.000000
 11
-1.000000
 20
-3.000000
 21
-1.000000
  0
LINE
  8
0
 10
-1.000000
 11
-3.000000
 20
-1.000000
 21
-1.000000
  0
LINE
  8
0
 10
-3.000000
 11
-3.000000
 20
-1.000000
 21
-0.990000
  0
LINE
  8
0
 10
-3.000000
 11
-4.990000
 20
-0.990000
 21
-0.990000
  0
LINE
  8
0
 10
-4.990000
 11
-4.990000
 20
-0.990000
 21
1.000000
  0
LINE
  8
0
 10
-4.990000
 11
-7.000000
 20
1.000000
 21
1.000000
  0
LINE
  8
0
 10
-7.000000
 11
-7.000000
 20
7.010000
 21
9.000000
  0
LINE
  8
0
 10
-7.000000
 11
-5.010000
 20
9.000000
 21
9.000000
  0
LINE
  8
0
 10
-5.010000
 11
-5.010000
 20
9.000000
 21
7.010000
  0
LINE
  8
0
 10
-5.010000
 11
-7.000000
 20
7.010000
 21
7.010000
  0
LINE
  8
0
 10
-6.990000
 11
-6.990000
 20
-24.990000
 21
-23.000000
  0
LINE
  8
0
 10
-6.990000
 11
-5.010000
 20
-23.000000
 21
-23.000000
  0
LINE
  8
0
 10
-5.010000
 11
-5.010000
 20
-23.000000
 21
-24.990000
  0
LINE
  8
0
 10
-5.010000
 11
-6.990000
 20
-24.990000
 21
-24.990000
  0
LINE
  8
0
 10
-6.990000
 11
-6.990000
 20
-8.990000
 21
-7.000000
  0
LINE
  8
0
 10
-6.990000
 11
-5.010000
 20
-7.000000
 21
-7.000000
  0
LINE
  8
0
 10
-5.010000
 11
-5.010000
 20
-7.000000
 21
-8.990000
  0
LINE
  8
0
 10
-5.010000
 11
-6.990000
 20
-8.990000
 21
-8.990000
  0
LINE
  8
0
 10
-5.000000
 11
-5.000000
 20
-27.000000
 21
-24.995000
  0
LINE
  8
0
 10
-5.000000
 11
-2.995000
 20
-24.995000
 21
-24.995000
  0
LINE
  8
0
 10
-2.995000
 11
-2.995000
 20
-24.995000
 21
-27.000000
  0
LINE
  8
0
 10
-2.995000
 11
-5.000000
 20
-27.000000
 21
-27.000000
  0
LINE
  8
0
 10
-5.000000
 11
-5.000000
 20
17.000000
 21
19.005000
  0
LINE
  8
0
 10
-5.000000
 11
-2.995000
 20
19.005000
 21
19.005000
  0
LINE
  8
0
 10
-2.995000
 11
-2.995000
 20
19.005000
 21
17.000000
  0
LINE
  8
0
 10
-2.995000
 11
-1.010000
 20
17.000000
 21
17.000000
  0
LINE
  8
0
 10
-1.010000
 11
-1.010000
 20
17.000000
 21
15.010000
  0
LINE
  8
0
 10
-1.010000
 11
-4.990000
 20
15.010000
 21
15.010000
  0
LINE
  8
0
 10
-4.990000
 11
-4.990000
 20
15.010000
 21
17.000000
  0
LINE
  8
0
 10
-4.990000
 11
-5.000000
 20
17.000000
 21
17.000000
  0
LINE
  8
0
 10
-3.000000
 11
-3.000000
 20
-23.000000
 21
-20.995000
  0
LINE
  8
0
 10
-3.000000
 11
-0.995000
 20
-20.995000
 21
-20.995000
  0
LINE
  8
0
 10
-0.995000
 11
-0.995000
 20
-20.995000
 21
-23.000000
  0
LINE
  8
0
 10
-0.995000
 11
-3.000000
 20
-23.000000
 21
-23.000000
  0
LINE
  8
0
 10
-3.000000
 11
-3.000000
 20
-7.000000
 21
-4.995000
  0
LINE
  8
0
 10
-3.000000
 11
-0.995000
 20
-4.995000
 21
-4.995000
  0
LINE
  8
0
 10
-0.995000
 11
-0.995000
 20
-4.995000
 21
-7.000000
  0
LINE
  8
0
 10
-0.995000
 11
-3.000000
 20
-7.000000
 21
-7.000000
  0
LINE
  8
0
 10
-3.000000
 11
-3.000000
 20
9.000000
 21
11.005000
  0
LINE
  8
0
 10
-3.000000
 11
-0.995000
 20
11.005000
 21
11.005000
  0
LINE
  8
0
 10
-0.995000
 11
-0.995000
 20
11.005000
 21
9.000000
  0
LINE
  8
0
 10
-0.995000
 11
-3.000000
 20
9.000000
 21
9.000000
  0
LINE
  8
0
 10
-3.000000
 11
-3.000000
 20
21.000000
 21
23.005000
  0
LINE
  8
0
 10
-3.000000
 11
-0.995000
 20
23.005000
 21
23.005000
  0
LINE
  8
0
 10
-0.995000
 11
-0.995000
 20
23.005000
 21
21.000000
  0
LINE
  8
0
 10
-0.995000
 11
-1.010000
 20
21.000000
 21
21.000000
  0
LINE
  8
0
 10
-1.010000
 11
-1.010000
 20
21.000000
 21
19.010000
  0
LINE
  8
0
 10
-1.010000
 11
-2.990000
 20
19.010000
 21
19.010000
  0
LINE
  8
0
 10
-2.990000
 11
-2.990000
 20
19.010000
 21
21.000000
  0
LINE
  8
0
 10
-2.990000
 11
-3.000000
 20
21.000000
 21
21.000000
  0
LINE
  8
0
 10
-1.000000
 11
-1.000000
 20
13.000000
 21
15.005000
  0
LINE
  8
0
 10
-1.000000
 11
1.005000
 20
15.005000
 21
15.005000
  0
LINE
  8
0
 10
1.005000
 11
1.005000
 20
15.005000
 21
13.000000
  0
LINE
  8
0
 10
1.005000
 11
-1.000000
 20
13.000000
 21
13.000000
  0
LINE
  8
0
 10
-1.000000
 11
-1.000000
 20
25.010000
 21
27.000000
  0
LINE
  8
0
 10
-1.000000
 11
0.990000
 20
27.000000
 21
27.000000
  0
LINE
  8
0
 10
0.990000
 11
0.990000
 20
27.000000
 21
25.010000
  0
LINE
  8
0
 10
0.990000
 11
-1.000000
 20
25.010000
 21
25.010000
  0
LINE
  8
0
 10
-0.990000
 11
-0.990000
 20
17.010000
 21
19.000000
  0
LINE
  8
0
 10
-0.990000
 11
0.990000
 20
19.000000
 21
19.000000
  0
LINE
  8
0
 10
0.990000
 11
0.990000
 20
19.000000
 21
17.010000
  0
LINE
  8
0
 10
0.990000
 11
-0.990000
 20
17.010000
 21
17.010000
  0
LINE
  8
0
 10
1.000000
 11
1.000000
 20
-27.000000
 21
-22.995000
  0
LINE
  8
0
 10
1.000000
 11
3.005000
 20
-22.995000
 21
-22.995000
  0
LINE
  8
0
 10
3.005000
 11
3.005000
 20
-22.995000
 21
-24.995000
  0
LINE
  8
0
 10
3.005000
 11
5.000000
 20
-24.995000
 21
-24.995000
  0
LINE
  8
0
 10
5.000000
 11
5.000000
 20
-24.995000
 21
-22.995000
  0
LINE
  8
0
 10
5.000000
 11
7.005000
 20
-22.995000
 21
-22.995000
  0
LINE
  8
0
 10
7.005000
 11
7.005000
 20
-22.995000
 21
-27.000000
  0
LINE
  8
0
 10
7.005000
 11
1.000000
 20
-27.000000
 21
-27.000000
  0
LINE
  8
0
 10
1.000000
 11
1.000000
 20
7.000000
 21
9.005000
  0
LINE
  8
0
 10
1.000000
 11
3.005000
 20
9.005000
 21
9.005000
  0
LINE
  8
0
 10
3.005000
 11
3.005000
 20
9.005000
 21
7.000000
  0
LINE
  8
0
 10
3.005000
 11
1.000000
 20
7.000000
 21
7.000000
  0
LINE
  8
0
 10
1.000000
 11
1.000000
 20
21.000000
 21
25.005000
  0
LINE
  8
0
 10
1.000000
 11
5.005000
 20
25.005000
 21
25.005000
  0
LINE
  8
0
 10
5.005000
 11
5.005000
 20
25.005000
 21
21.000000
  0
LINE
  8
0
 10
5.005000
 11
2.990000
 20
21.000000
 21
21.000000
  0
LINE
  8
0
 10
2.990000
 11
2.990000
 20
21.000000
 21
19.010000
  0
LINE
  8
0
 10
2.990000
 11
1.010000
 20
19.010000
 21
19.010000
  0
LINE
  8
0
 10
1.010000
 11
1.010000
 20
19.010000
 21
21.000000
  0
LINE
  8
0
 10
1.010000
 11
1.000000
 20
21.000000
 21
21.000000
  0
LINE
  8
0
 10
1.000000
 11
1.000000
 20
29.000000
 21
31.005000
  0
LINE
  8
0
 10
1.000000
 11
13.005000
 20
31.005000
 21
31.005000
  0
LINE
  8
0
 10
13.005000
 11
13.005000
 20
31.005000
 21
27.000000
  0
LINE
  8
0
 10
13.005000
 11
9.005000
 20
27.000000
 21
27.000000
  0
LINE
  8
0
 10
9.005000
 11
9.005000
 20
27.000000
 21
25.005000
  0
LINE
  8
0
 10
9.005000
 11
11.005000
 20
25.005000
 21
25.005000
  0
LINE
  8
0
 10
11.005000
 11
11.005000
 20
25.005000
 21
21.005000
  0
LINE
  8
0
 10
11.005000
 11
13.005000
 20
21.005000
 21
21.005000
  0
LINE
  8
0
 10
13.005000
 11
13.005000
 20
21.005000
 21
17.000000
  0
LINE
  8
0
 10
13.005000
 11
11.000000
 20
17.000000
 21
17.000000
  0
LINE
  8
0
 10
11.000000
 11
11.000000
 20
17.000000
 21
19.010000
  0
LINE
  8
0
 10
11.000000
 11
9.010000
 20
19.010000
 21
19.010000
  0
LINE
  8
0
 10
9.010000
 11
9.010000
 20
19.010000
 21
21.000000
  0
LINE
  8
0
 10
9.010000
 11
7.000000
 20
21.000000
 21
21.000000
  0
LINE
  8
0
 10
7.000000
 11
7.000000
 20
21.000000
 21
29.000000
  0
LINE
  8
0
 10
7.000000
 11
3.000000
 20
29.000000
 21
29.000000
  0
LINE
  8
0
 10
3.000000
 11
3.000000
 20
29.000000
 21
27.010000
  0
LINE
  8
0
 10
3.000000
 11
1.010000
 20
27.010000
 21
27.010000
  0
LINE
  8
0
 10
1.010000
 11
1.010000
 20
27.010000
 21
29.000000
  0
LINE
  8
0
 10
1.010000
 11
1.000000
 20
29.000000
 21
29.000000
  0
LINE
  8
0
 10
1.010000
 11
1.010000
 20
15.010000
 21
17.000000
  0
LINE
  8
0
 10
1.010000
 11
3.000000
 20
17.000000
 21
17.000000
  0
LINE
  8
0
 10
3.000000
 11
3.000000
 20
17.000000
 21
15.010000
  0
LINE
  8
0
 10
3.000000
 11
1.010000
 20
15.010000
 21
15.010000
  0
LINE
  8
0
 10
3.000000
 11
3.000000
 20
1.010000
 21
3.000000
  0
LINE
  8
0
 10
3.000000
 11
4.990000
 20
3.000000
 21
3.000000
  0
LINE
  8
0
 10
4.990000
 11
4.990000
 20
3.000000
 21
1.010000
  0
LINE
  8
0
 10
4.990000
 11
3.000000
 20
1.010000
 21
1.010000
  0
LINE
  8
0
 10
3.010000
 11
3.010000
 20
17.010000
 21
19.000000
  0
LINE
  8
0
 10
3.010000
 11
4.990000
 20
19.000000
 21
19.000000
  0
LINE
  8
0
 10
4.990000
 11
4.990000
 20
19.000000
 21
17.010000
  0
LINE
  8
0
 10
4.990000
 11
3.010000
 20
17.010000
 21
17.010000
  0
LINE
  8
0
 10
5.000000
 11
5.000000
 20
-3.000000
 21
1.005000
  0
LINE
  8
0
 10
5.000000
 11
13.005000
 20
1.005000
 21
1.005000
  0
LINE
  8
0
 10
13.005000
 11
13.005000
 20
1.005000
 21
-0.995000
  0
LINE
  8
0
 10
13.005000
 11
17.005000
 20
-0.995000
 21
-0.995000
  0
LINE
  8
0
 10
17.005000
 11
17.005000
 20
-0.995000
 21
-2.995000
  0
LINE
  8
0
 10
17.005000
 11
19.005000
 20
-2.995000
 21
-2.995000
  0
LINE
  8
0
 10
19.005000
 11
19.005000
 20
-2.995000
 21
-5.000000
  0
LINE
  8
0
 10
19.005000
 11
19.000000
 20
-5.000000
 21
-5.000000
  0
LINE
  8
0
 10
19.000000
 11
19.000000
 20
-5.000000
 21
-6.990000
  0
LINE
  8
0
 10
19.000000
 11
17.010000
 20
-6.990000
 21
-6.990000
  0
LINE
  8
0
 10
17.010000
 11
17.010000
 20
-6.990000
 21
-5.000000
  0
LINE
  8
0
 10
17.010000
 11
15.005000
 20
-5.000000
 21
-5.000000
  0
LINE
  8
0
 10
15.005000
 11
15.005000
 20
-5.000000
 21
-6.995000
  0
LINE
  8
0
 10
15.005000
 11
17.005000
 20
-6.995000
 21
-6.995000
  0
LINE
  8
0
 10
17.005000
 11
17.005000
 20
-6.995000
 21
-8.995000
  0
LINE
  8
0
 10
17.005000
 11
21.005000
 20
-8.995000
 21
-8.995000
  0
LINE
  8
0
 10
21.005000
 11
21.005000
 20
-8.995000
 21
-12.995000
  0
LINE
  8
0
 10
21.005000
 11
23.005000
 20
-12.995000
 21
-12.995000
  0
LINE
  8
0
 10
23.005000
 11
23.005000
 20
-12.995000
 21
-15.000000
  0
LINE
  8
0
 10
23.005000
 11
21.005000
 20
-15.000000
 21
-15.000000
  0
LINE
  8
0
 10
21.005000
 11
21.005000
 20
-15.000000
 21
-16.995000
  0
LINE
  8
0
 10
21.005000
 11
23.005000
 20
-16.995000
 21
-16.995000
  0
LINE
  8
0
 10
23.005000
 11
23.005000
 20
-16.995000
 21
-19.000000
  0
LINE
  8
0
 10
23.005000
 11
21.005000
 20
-19.000000
 21
-19.000000
  0
LINE
  8
0
 10
21.005000
 11
21.005000
 20
-19.000000
 21
-20.995000
  0
LINE
  8
0
 10
21.005000
 11
23.005000
 20
-20.995000
 21
-20.995000
  0
LINE
  8
0
 10
23.005000
 11
23.005000
 20
-20.995000
 21
-23.000000
  0
LINE
  8
0
 10
23.005000
 11
21.005000
 20
-23.000000
 21
-23.000000
  0
LINE
  8
0
 10
21.005000
 11
21.005000
 20
-23.000000
 21
-24.995000
  0
LINE
  8
0
 10
21.005000
 11
23.005000
 20
-24.995000
 21
-24.995000
  0
LINE
  8
0
 10
23.005000
 11
23.005000
 20
-24.995000
 21
-27.000000
  0
LINE
  8
0
 10
23.005000
 11
17.000000
 20
-27.000000
 21
-27.000000
  0
LINE
  8
0
 10
17.000000
 11
17.000000
 20
-27.000000
 21
-24.995000
  0
LINE
  8
0
 10
17.000000
 11
19.000000
 20
-24.995000
 21
-24.995000
  0
LINE
  8
0
 10
19.000000
 11
19.000000
 20
-24.995000
 21
-23.000000
  0
LINE
  8
0
 10
19.000000
 11
17.000000
 20
-23.000000
 21
-23.000000
  0
LINE
  8
0
 10
17.000000
 11
17.000000
 20
-23.000000
 21
-20.995000
  0
LINE
  8
0
 10
17.000000
 11
19.000000
 20
-20.995000
 21
-20.995000
  0
LINE
  8
0
 10
19.000000
 11
19.000000
 20
-20.995000
 21
-19.000000
  0
LINE
  8
0
 10
19.000000
 11
11.000000
 20
-19.000000
 21
-19.000000
  0
LINE
  8
0
 10
11.000000
 11
11.000000
 20
-19.000000
 21
-15.000000
  0
LINE
  8
0
 10
11.000000
 11
9.000000
 20
-15.000000
 21
-15.000000
  0
LINE
  8
0
 10
9.000000
 11
9.000000
 20
-15.000000
 21
-12.995000
  0
LINE
  8
0
 10
9.000000
 11
11.000000
 20
-12.995000
 21
-12.995000
  0
LINE
  8
0
 10
11.000000
 11
11.000000
 20
-12.995000
 21
-1.000000
  0
LINE
  8
0
 10
11.000000
 11
9.005000
 20
-1.000000
 21
-1.000000
  0
LINE
  8
0
 10
9.005000
 11
9.005000
 20
-1.000000
 21
-3.000000
  0
LINE
  8
0
 10
9.005000
 11
5.000000
 20
-3.000000
 21
-3.000000
  0
LINE
  8
0
 10
5.000000
 11
5.000000
 20
5.000000
 21
11.005000
  0
LINE
  8
0
 10
5.000000
 11
7.005000
 20
11.005000
 21
11.005000
  0
LINE
  8
0
 10
7.005000
 11
7.005000
 20
11.005000
 21
9.005000
  0
LINE
  8
0
 10
7.005000
 11
9.005000
 20
9.005000
 21
9.005000
  0
LINE
  8
0
 10
9.005000
 11
9.005000
 20
9.005000
 21
7.000000
  0
LINE
  8
0
 10
9.005000
 11
7.005000
 20
7.000000
 21
7.000000
  0
LINE
  8
0
 10
7.005000
 11
7.005000
 20
7.000000
 21
5.000000
  0
LINE
  8
0
 10
7.005000
 11
5.000000
 20
5.000000
 21
5.000000
  0
LINE
  8
0
 10
5.000000
 11
5.000000
 20
13.000000
 21
17.005000
  0
LINE
  8
0
 10
5.000000
 11
7.000000
 20
17.005000
 21
17.005000
  0
LINE
  8
0
 10
7.000000
 11
7.000000
 20
17.005000
 21
19.005000
  0
LINE
  8
0
 10
7.000000
 11
9.005000
 20
19.005000
 21
19.005000
  0
LINE
  8
0
 10
9.005000
 11
9.005000
 20
19.005000
 21
15.000000
  0
LINE
  8
0
 10
9.005000
 11
7.005000
 20
15.000000
 21
15.000000
  0
LINE
  8
0
 10
7.005000
 11
7.005000
 20
15.000000
 21
13.000000
  0
LINE
  8
0
 10
7.005000
 11
5.000000
 20
13.000000
 21
13.000000
  0
LINE
  8
0
 10
7.010000
 11
7.010000
 20
-22.990000
 21
-21.000000
  0
LINE
  8
0
 10
7.010000
 11
8.990000
 20
-21.000000
 21
-21.000000
  0
LINE
  8
0
 10
8.990000
 11
8.990000
 20
-21.000000
 21
-22.990000
  0
LINE
  8
0
 10
8.990000
 11
7.010000
 20
-22.990000
 21
-22.990000
  0
LINE
  8
0
 10
9.000000
 11
9.000000
 20
-27.000000
 21
-22.995000
  0
LINE
  8
0
 10
9.000000
 11
13.005000
 20
-22.995000
 21
-22.995000
  0
LINE
  8
0
 10
13.005000
 11
13.005000
 20
-22.995000
 21
-24.995000
  0
LINE
  8
0
 10
13.005000
 11
15.005000
 20
-24.995000
 21
-24.995000
  0
LINE
  8
0
 10
15.005000
 11
15.005000
 20
-24.995000
 21
-27.000000
  0
LINE
  8
0
 10
15.005000
 11
9.000000
 20
-27.000000
 21
-27.000000
  0
LINE
  8
0
 10
11.000000
 11
11.000000
 20
3.000000
 21
5.005000
  0
LINE
  8
0
 10
11.000000
 11
13.000000
 20
5.005000
 21
5.005000
  0
LINE
  8
0
 10
13.000000
 11
13.000000
 20
5.005000
 21
9.005000
  0
LINE
  8
0
 10
13.000000
 11
15.005000
 20
9.005000
 21
9.005000
  0
LINE
  8
0
 10
15.005000
 11
15.005000
 20
9.005000
 21
7.005000
  0
LINE
  8
0
 10
15.005000
 11
19.005000
 20
7.005000
 21
7.005000
  0
LINE
  8
0
 10
19.005000
 11
19.005000
 20
7.005000
 21
5.000000
  0
LINE
  8
0
 10
19.005000
 11
17.005000
 20
5.000000
 21
5.000000
  0
LINE
  8
0
 10
17.005000
 11
17.005000
 20
5.000000
 21
3.000000
  0
LINE
  8
0
 10
17.005000
 11
11.000000
 20
3.000000
 21
3.000000
  0
LINE
  8
0
 10
11.000000
 11
11.000000
 20
9.010000
 21
13.005000
  0
LINE
  8
0
 10
11.000000
 11
13.000000
 20
13.005000
 21
13.005000
  0
LINE
  8
0
 10
13.000000
 11
13.000000
 20
13.005000
 21
15.005000
  0
LINE
  8
0
 10
13.000000
 11
17.005000
 20
15.005000
 21
15.005000
  0
LINE
  8
0
 10
17.005000
 11
17.005000
 20
15.005000
 21
11.000000
  0
LINE
  8
0
 10
17.005000
 11
12.990000
 20
11.000000
 21
11.000000
  0
LINE
  8
0
 10
12.990000
 11
12.990000
 20
11.000000
 21
9.010000
  0
LINE
  8
0
 10
12.990000
 11
11.000000
 20
9.010000
 21
9.010000
  0
LINE
  8
0
 10
13.005000
 11
13.005000
 20
-16.995000
 21
-11.000000
  0
LINE
  8
0
 10
13.005000
 11
19.000000
 20
-11.000000
 21
-11.000000
  0
LINE
  8
0
 10
19.000000
 11
19.000000
 20
-11.000000
 21
-16.995000
  0
LINE
  8
0
 10
19.000000
 11
13.005000
 20
-16.995000
 21
-16.995000
  0
LINE
  8
0
 10
15.000000
 11
15.000000
 20
-15.000000
 21
-12.995000
  0
LINE
  8
0
 10
15.000000
 11
17.005000
 20
-12.995000
 21
-12.995000
  0
LINE
  8
0
 10
17.005000
 11
17.005000
 20
-12.995000
 21
-15.000000
  0
LINE
  8
0
 10
17.005000
 11
15.000000
 20
-15.000000
 21
-15.000000
  0
LINE
  8
0
 10
15.000000
 11
15.000000
 20
17.000000
 21
31.005000
  0
LINE
  8
0
 10
15.000000
 11
29.005000
 20
31.005000
 21
31.005000
  0
LINE
  8
0
 10
29.005000
 11
29.005000
 20
31.005000
 21
17.000000
  0
LINE
  8
0
 10
29.005000
 11
15.000000
 20
17.000000
 21
17.000000
  0
LINE
  8
0
 10
17.005000
 11
17.005000
 20
19.005000
 21
29.000000
  0
LINE
  8
0
 10
17.005000
 11
27.000000
 20
29.000000
 21
29.000000
  0
LINE
  8
0
 10
27.000000
 11
27.000000
 20
29.000000
 21
19.005000
  0
LINE
  8
0
 10
27.000000
 11
17.005000
 20
19.005000
 21
19.005000
  0
LINE
  8
0
 10
19.000000
 11
19.000000
 20
-1.000000
 21
1.005000
  0
LINE
  8
0
 10
19.000000
 11
23.005000
 20
1.005000
 21
1.005000
  0
LINE
  8
0
 10
23.005000
 11
23.005000
 20
1.005000
 21
-1.000000
  0
LINE
  8
0
 10
23.005000
 11
19.000000
 20
-1.000000
 21
-1.000000
  0
LINE
  8
0
 10
19.000000
 11
19.000000
 20
9.010000
 21
11.000000
  0
LINE
  8
0
 10
19.000000
 11
20.990000
 20
11.000000
 21
11.000000
  0
LINE
  8
0
 10
20.990000
 11
20.990000
 20
11.000000
 21
9.010000
  0
LINE
  8
0
 10
20.990000
 11
19.000000
 20
9.010000
 21
9.010000
  0
LINE
  8
0
 10
19.000000
 11
19.000000
 20
21.000000
 21
27.005000
  0
LINE
  8
0
 10
19.000000
 11
25.005000
 20
27.005000
 21
27.005000
  0
LINE
  8
0
 10
25.005000
 11
25.005000
 20
27.005000
 21
21.000000
  0
LINE
  8
0
 10
25.005000
 11
19.000000
 20
21.000000
 21
21.000000
  0
LINE
  8
0
 10
21.000000
 11
21.000000
 20
-7.000000
 21
-4.995000
  0
LINE
  8
0
 10
21.000000
 11
23.005000
 20
-4.995000
 21
-4.995000
  0
LINE
  8
0
 10
23.005000
 11
23.005000
 20
-4.995000
 21
-7.000000
  0
LINE
  8
0
 10
23.005000
 11
23.000000
 20
-7.000000
 21
-7.000000
  0
LINE
  8
0
 10
23.000000
 11
23.000000
 20
-7.000000
 21
-8.990000
  0
LINE
  8
0
 10
23.000000
 11
21.010000
 20
-8.990000
 21
-8.990000
  0
LINE
  8
0
 10
21.010000
 11
21.010000
 20
-8.990000
 21
-7.000000
  0
LINE
  8
0
 10
21.010000
 11
21.000000
 20
-7.000000
 21
-7.000000
  0
LINE
  8
0
 10
21.000000
 11
21.000000
 20
3.000000
 21
9.005000
  0
LINE
  8
0
 10
21.000000
 11
23.005000
 20
9.005000
 21
9.005000
  0
LINE
  8
0
 10
23.005000
 11
23.005000
 20
9.005000
 21
5.000000
  0
LINE
  8
0
 10
23.005000
 11
24.990000
 20
5.000000
 21
5.000000
  0
LINE
  8
0
 10
24.990000
 11
24.990000
 20
5.000000
 21
3.010000
  0
LINE
  8
0
 10
24.990000
 11
23.005000
 20
3.010000
 21
3.010000
  0
LINE
  8
0
 10
23.005000
 11
23.005000
 20
3.010000
 21
3.000000
  0
LINE
  8
0
 10
23.005000
 11
21.000000
 20
3.000000
 21
3.000000
  0
LINE
  8
0
 10
21.010000
 11
21.010000
 20
11.010000
 21
13.000000
  0
LINE
  8
0
 10
21.010000
 11
22.990000
 20
13.000000
 21
13.000000
  0
LINE
  8
0
 10
22.990000
 11
22.990000
 20
13.000000
 21
11.010000
  0
LINE
  8
0
 10
22.990000
 11
21.010000
 20
11.010000
 21
11.010000
  0
LINE
  8
0
 10
23.010000
 11
23.010000
 20
-12.990000
 21
-11.000000
  0
LINE
  8
0
 10
23.010000
 11
25.000000
 20
-11.000000
 21
-11.000000
  0
LINE
  8
0
 10
25.000000
 11
25.000000
 20
-11.000000
 21
-10.995000
  0
LINE
  8
0
 10
25.000000
 11
29.005000
 20
-10.995000
 21
-10.995000
  0
LINE
  8
0
 10
29.005000
 11
29.005000
 20
-10.995000
 21
-21.000000
  0
LINE
  8
0
 10
29.005000
 11
29.000000
 20
-21.000000
 21
-21.000000
  0
LINE
  8
0
 10
29.000000
 11
29.000000
 20
-21.000000
 21
-22.990000
  0
LINE
  8
0
 10
29.000000
 11
27.010000
 20
-22.990000
 21
-22.990000
  0
LINE
  8
0
 10
27.010000
 11
27.010000
 20
-22.990000
 21
-21.000000
  0
LINE
  8
0
 10
27.010000
 11
25.000000
 20
-21.000000
 21
-21.000000
  0
LINE
  8
0
 10
25.000000
 11
25.000000
 20
-21.000000
 21
-12.990000
  0
LINE
  8
0
 10
25.000000
 11
23.010000
 20
-12.990000
 21
-12.990000
  0
LINE
  8
0
 10
23.010000
 11
23.010000
 20
-4.990000
 21
-3.000000
  0
LINE
  8
0
 10
23.010000
 11
24.990000
 20
-3.000000
 21
-3.000000
  0
LINE
  8
0
 10
24.990000
 11
24.990000
 20
-3.000000
 21
-4.990000
  0
LINE
  8
0
 10
24.990000
 11
23.010000
 20
-4.990000
 21
-4.990000
  0
LINE
  8
0
 10
23.010000
 11
23.010000
 20
9.010000
 21
11.000000
  0
LINE
  8
0
 10
23.010000
 11
25.000000
 20
11.000000
 21
11.000000
  0
LINE
  8
0
 10
25.000000
 11
25.000000
 20
11.000000
 21
11.005000
  0
LINE
  8
0
 10
25.000000
 11
27.000000
 20
11.005000
 21
11.005000
  0
LINE
  8
0
 10
27.000000
 11
27.000000
 20
11.005000
 21
13.005000
  0
LINE
  8
0
 10
27.000000
 11
29.005000
 20
13.005000
 21
13.005000
  0
LINE
  8
0
 10
29.005000
 11
29.005000
 20
13.005000
 21
9.000000
  0
LINE
  8
0
 10
29.005000
 11
27.005000
 20
9.000000
 21
9.000000
  0
LINE
  8
0
 10
27.005000
 11
27.005000
 20
9.000000
 21
7.005000
  0
LINE
  8
0
 10
27.005000
 11
29.005000
 20
7.005000
 21
7.005000
  0
LINE
  8
0
 10
29.005000
 11
29.005000
 20
7.005000
 21
1.000000
  0
LINE
  8
0
 10
29.005000
 11
27.005000
 20
1.000000
 21
1.000000
  0
LINE
  8
0
 10
27.005000
 11
27.005000
 20
1.000000
 21
-0.995000
  0
LINE
  8
0
 10
27.005000
 11
29.005000
 20
-0.995000
 21
-0.995000
  0
LINE
  8
0
 10
29.005000
 11
29.005000
 20
-0.995000
 21
-7.000000
  0
LINE
  8
0
 10
29.005000
 11
27.005000
 20
-7.000000
 21
-7.000000
  0
LINE
  8
0
 10
27.005000
 11
27.005000
 20
-7.000000
 21
-9.000000
  0
LINE
  8
0
 10
27.005000
 11
25.000000
 20
-9.000000
 21
-9.000000
  0
LINE
  8
0
 10
25.000000
 11
25.000000
 20
-9.000000
 21
-4.995000
  0
LINE
  8
0
 10
25.000000
 11
27.000000
 20
-4.995000
 21
-4.995000
  0
LINE
  8
0
 10
27.000000
 11
27.000000
 20
-4.995000
 21
-2.990000
  0
LINE
  8
0
 10
27.000000
 11
25.010000
 20
-2.990000
 21
-2.990000
  0
LINE
  8
0
 10
25.010000
 11
25.010000
 20
-2.990000
 21
-1.000000
  0
LINE
  8
0
 10
25.010000
 11
25.000000
 20
-1.000000
 21
-1.000000
  0
LINE
  8
0
 10
25.000000
 11
25.000000
 20
-1.000000
 21
3.005000
  0
LINE
  8
0
 10
25.000000
 11
27.000000
 20
3.005000
 21
3.005000
  0
LINE
  8
0
 10
27.000000
 11
27.000000
 20
3.005000
 21
5.010000
  0
LINE
  8
0
 10
27.000000
 11
25.010000
 20
5.010000
 21
5.010000
  0
LINE
  8
0
 10
25.010000
 11
25.010000
 20
5.010000
 21
7.000000
  0
LINE
  8
0
 10
25.010000
 11
25.000000
 20
7.000000
 21
7.000000
  0
LINE
  8
0
 10
25.000000
 11
25.000000
 20
7.000000
 21
9.010000
  0
LINE
  8
0
 10
25.000000
 11
23.010000
 20
9.010000
 21
9.010000
  0
LINE
  8
0
 10
23.010000
 11
23.010000
 20
13.010000
 21
15.000000
  0
LINE
  8
0
 10
23.010000
 11
25.000000
 20
15.000000
 21
15.000000
  0
LINE
  8
0
 10
25.000000
 11
25.000000
 20
15.000000
 21
13.010000
  0
LINE
  8
0
 10
25.000000
 11
23.010000
 20
13.010000
 21
13.010000
  0
LINE
  8
0
 10
25.000000
 11
25.000000
 20
-27.000000
 21
-22.995000
  0
LINE
  8
0
 10
25.000000
 11
27.005000
 20
-22.995000
 21
-22.995000
  0
LINE
  8
0
 10
27.005000
 11
27.005000
 20
-22.995000
 21
-24.995000
  0
LINE
  8
0
 10
27.005000
 11
29.005000
 20
-24.995000
 21
-24.995000
  0
LINE
  8
0
 10
29.005000
 11
29.005000
 20
-24.995000
 21
-27.000000
  0
LINE
  8
0
 10
29.005000
 11
25.000000
 20
-27.000000
 21
-27.000000
  0
ENDSEC
  0
SECTION
  2
OBJECTS
  0
DICTIONARY
  0
ENDSEC
  0
EOF
